<svg xmlns="http://www.w3.org/2000/svg" xmlns:xlink="http://www.w3.org/1999/xlink" width="500" height="500" viewBox="0 0 500 500">
  <defs>
    <clipPath id="clip-logo_demo">
      <rect width="500" height="500"/>
    </clipPath>
  </defs>
  <g id="logo_demo" data-name="logo demo" clip-path="url(#clip-logo_demo)">
    <rect width="500" height="500" fill="rgba(255,255,255,0)"/>
    <g id="Ellipse_7" data-name="Ellipse 7" fill="#676767" stroke="#fff" stroke-width="15">
      <circle cx="250" cy="250" r="250" stroke="none"/>
      <circle cx="250" cy="250" r="242.5" fill="none"/>
    </g>
    <g id="Polygon_1" data-name="Polygon 1" transform="translate(407 218) rotate(90)" fill="#fff">
      <path d="M 155.0727233886719 146.5 L 26.9272632598877 146.5 C 24.22315979003906 146.5 21.60905456542969 145.7743377685547 19.36753463745117 144.4014587402344 C 17.25249290466309 143.1060638427734 15.48636722564697 141.2577514648438 14.26005458831787 139.0563354492188 C 13.03374195098877 136.8549346923828 12.39180469512939 134.38037109375 12.4036169052124 131.9001922607422 C 12.41615867614746 129.2717132568359 13.17509651184082 126.6670608520508 14.59840869903564 124.3678741455078 L 78.67111968994141 20.86577224731445 C 80.04267883300781 18.65016746520996 81.87501525878906 16.91710472106934 84.11720275878906 15.71470928192139 C 86.21161651611328 14.5915641784668 88.59163665771484 13.99789714813232 90.99996948242188 13.99789714813232 C 93.40828704833984 13.99789714813232 95.78830718994141 14.5915641784668 97.88272094726563 15.71470928192139 C 100.1249313354492 16.91710472106934 101.9572601318359 18.65016746520996 103.3288269042969 20.86577224731445 L 167.4015808105469 124.3678588867188 C 168.8248901367188 126.6670455932617 169.5838317871094 129.2716827392578 169.5963745117188 131.9001922607422 C 169.6081848144531 134.38037109375 168.9662475585938 136.8549346923828 167.7399291992188 139.0563354492188 C 166.5136108398438 141.2577514648438 164.7474670410156 143.1060638427734 162.6324462890625 144.4014739990234 C 160.3909301757813 145.7743377685547 157.7768249511719 146.5 155.0727233886719 146.5 Z" stroke="none"/>
      <path d="M 90.99996948242188 14.49787902832031 C 88.67382049560547 14.49787902832031 86.37551116943359 15.07101440429688 84.35349273681641 16.15533447265625 C 82.18975067138672 17.31565856933594 80.42096710205078 18.989013671875 79.09625244140625 21.12892150878906 L 15.02352905273438 124.6310272216797 C 13.64875793457031 126.8518371582031 12.91571044921875 129.3662872314453 12.90362548828125 131.9025726318359 C 12.8922119140625 134.2969665527344 13.51229858398438 136.6865692138672 14.69686889648438 138.8130035400391 C 15.88142395019531 140.9394683837891 17.58682250976563 142.7244873046875 19.62869262695313 143.9750671386719 C 21.79156494140625 145.2997894287109 24.31536865234375 145.9999847412109 26.92724609375 145.9999847412109 L 155.0727233886719 145.9999847412109 C 157.6846313476563 145.9999847412109 160.2084350585938 145.2997894287109 162.3712921142578 143.9750671386719 C 164.4131622314453 142.7244873046875 166.1185607910156 140.9394683837891 167.3031158447266 138.8130035400391 C 168.4876861572266 136.6865539550781 169.1077728271484 134.2969665527344 169.0963592529297 131.9025726318359 C 169.0842742919922 129.3662872314453 168.3512268066406 126.8518371582031 166.9764556884766 124.6310272216797 L 102.9036865234375 21.12892150878906 C 101.578971862793 18.98902893066406 99.81018829345703 17.31565856933594 97.64642333984375 16.15533447265625 C 95.62442779541016 15.07101440429688 93.32610321044922 14.49787902832031 90.99996948242188 14.49787902832031 M 90.99996948242188 13.49789428710938 C 95.91091918945313 13.49789428710938 100.8218612670898 15.86611938476563 103.7539520263672 20.60256958007813 L 167.8267059326172 124.1046829223633 C 174.0127563476563 134.0975341796875 166.8253631591797 146.9999847412109 155.0727233886719 146.9999847412109 L 26.92724609375 146.9999847412109 C 15.17462158203125 146.9999847412109 7.987228393554688 134.0975494384766 14.17327880859375 124.1046829223633 L 78.24599456787109 20.60256958007813 C 81.17807769775391 15.86611938476563 86.08902740478516 13.49789428710938 90.99996948242188 13.49789428710938 Z" stroke="none" fill="#707070"/>
    </g>
    <g id="Polygon_2" data-name="Polygon 2" transform="translate(93 282) rotate(-90)" fill="#fff">
      <path d="M 155.0727233886719 146.5 L 26.9272632598877 146.5 C 24.22315979003906 146.5 21.60905456542969 145.7743377685547 19.36753463745117 144.4014587402344 C 17.25249290466309 143.1060638427734 15.48636722564697 141.2577514648438 14.26005458831787 139.0563354492188 C 13.03374195098877 136.8549346923828 12.39180469512939 134.38037109375 12.4036169052124 131.9001922607422 C 12.41615867614746 129.2717132568359 13.17509651184082 126.6670608520508 14.59840869903564 124.3678741455078 L 78.67111968994141 20.86577224731445 C 80.04267883300781 18.65016746520996 81.87501525878906 16.91710472106934 84.11720275878906 15.71470928192139 C 86.21161651611328 14.5915641784668 88.59163665771484 13.99789714813232 90.99996948242188 13.99789714813232 C 93.40828704833984 13.99789714813232 95.78830718994141 14.5915641784668 97.88272094726563 15.71470928192139 C 100.1249313354492 16.91710472106934 101.9572601318359 18.65016746520996 103.3288269042969 20.86577224731445 L 167.4015808105469 124.3678588867188 C 168.8248901367188 126.6670455932617 169.5838317871094 129.2716827392578 169.5963745117188 131.9001922607422 C 169.6081848144531 134.38037109375 168.9662475585938 136.8549346923828 167.7399291992188 139.0563354492188 C 166.5136108398438 141.2577514648438 164.7474670410156 143.1060638427734 162.6324462890625 144.4014739990234 C 160.3909301757813 145.7743377685547 157.7768249511719 146.5 155.0727233886719 146.5 Z" stroke="none"/>
      <path d="M 90.99996948242188 14.49787902832031 C 88.67382049560547 14.49787902832031 86.37551116943359 15.07101440429688 84.35349273681641 16.15533447265625 C 82.18975067138672 17.31565856933594 80.42096710205078 18.989013671875 79.09625244140625 21.12892150878906 L 15.02352905273438 124.6310272216797 C 13.64875793457031 126.8518371582031 12.91571044921875 129.3662872314453 12.90362548828125 131.9025726318359 C 12.8922119140625 134.2969665527344 13.51229858398438 136.6865692138672 14.69686889648438 138.8130035400391 C 15.88142395019531 140.9394683837891 17.58682250976563 142.7244873046875 19.62869262695313 143.9750671386719 C 21.79156494140625 145.2997894287109 24.31536865234375 145.9999847412109 26.92724609375 145.9999847412109 L 155.0727233886719 145.9999847412109 C 157.6846313476563 145.9999847412109 160.2084350585938 145.2997894287109 162.3712921142578 143.9750671386719 C 164.4131622314453 142.7244873046875 166.1185607910156 140.9394683837891 167.3031158447266 138.8130035400391 C 168.4876861572266 136.6865539550781 169.1077728271484 134.2969665527344 169.0963592529297 131.9025726318359 C 169.0842742919922 129.3662872314453 168.3512268066406 126.8518371582031 166.9764556884766 124.6310272216797 L 102.9036865234375 21.12892150878906 C 101.578971862793 18.98902893066406 99.81018829345703 17.31565856933594 97.64642333984375 16.15533447265625 C 95.62442779541016 15.07101440429688 93.32610321044922 14.49787902832031 90.99996948242188 14.49787902832031 M 90.99996948242188 13.49789428710938 C 95.91091918945313 13.49789428710938 100.8218612670898 15.86611938476563 103.7539520263672 20.60256958007813 L 167.8267059326172 124.1046829223633 C 174.0127563476563 134.0975341796875 166.8253631591797 146.9999847412109 155.0727233886719 146.9999847412109 L 26.92724609375 146.9999847412109 C 15.17462158203125 146.9999847412109 7.987228393554688 134.0975494384766 14.17327880859375 124.1046829223633 L 78.24599456787109 20.60256958007813 C 81.17807769775391 15.86611938476563 86.08902740478516 13.49789428710938 90.99996948242188 13.49789428710938 Z" stroke="none" fill="#707070"/>
    </g>
  </g>
</svg>
